#!OML:ASF F:\VICON\USERDATA\INSTALL\rory3\rory3.ASF
:FULLY-SPECIFIED
:DEGREES
18
root -6.090700640153681 17.65861488607883 1.6463226200626546 -9.347849901903913 55.139393116912416 -23.940209868335117
lfemur -12.19630605285701 21.569489420588404 7.855766190505374
ltibia 33.46919255478247
lfoot -8.374399616956918 14.474489948653835
ltoes -35.90658889102585
rfemur -31.443491374786895 11.862491768924457 26.223991130544377
rtibia 27.59249661389931
rfoot -6.478782909606477 14.51479065994623
rtoes 14.950104356053739
lowerback -0.033398977414120345 -4.399563778864957 -10.086491247819588
upperback 4.07163966786317 -5.527864074747551 -0.8667213751591025
thorax 5.1840281700937085 -3.099923785176555 4.413125268226833
lowerneck -9.20556050688398 14.89149127636346 4.6060945822407175
upperneck 29.183890418505 24.069290903148104 -8.72447513069799
head 12.985688884913435 10.28419121681087 -0.4601347486617825
lclavicle -5.008194711663627e-15 -1.0203021341082521e-14
lhumerus 83.01269541583206 -70.62968823610137 23.822215660041202
lradius 26.28130833088297
lwrist 9.043025155892405
lhand 5.9065345685838135 35.156094453400634
lfingers 7.125020000000001
lthumb -148.76601544204584 242.5129894989551
rclavicle -5.008194711663627e-15 -1.0203021341082521e-14
rhumerus -13.605688138974614 -4.024175719598286 -94.96958735435649
rradius 72.73619899333308
rwrist -61.670784024317975
rhand -59.8784921428934 -3.0650482317745116
rfingers 7.125020000000001
rthumb -32.036192148400055 -30.26368916961076
19
root -6.053801385236735 17.674713944819764 1.8000720348017862 -9.331399903945794 53.759693573644874 -23.477409928375607
lfemur -10.937507185964977 21.402389519994056 9.239044783510083
ltibia 34.518990935222625
lfoot -7.730210099172149 13.33379037694464
ltoes -35.517389009479785
rfemur -30.427191831756197 11.967691678265581 27.24988970919554
rtibia 27.499296713955694
rfoot -6.296393009024807 15.66599020926441
rtoes 17.220502854747917
lowerback 0.1958976420747791 -5.5536326388296615 -10.517190882289015
upperback 3.83756996727689 -7.080292893346296 -1.1911547586223419
thorax 5.065978411288594 -3.8602225487043547 4.212015673779492
lowerneck -8.33719271856359 16.16289053522507 4.375305259661877
upperneck 27.87209186124944 25.808490197766826 -9.141514520026895
head 12.45799051489159 11.079090525734204 -0.3951843554057284
lclavicle -5.008197044530093e-15 -1.0203021208797218e-14
lhumerus 85.58399469804166 -68.3665888595259 23.690615717761943
lradius 26.08340842730838
lwrist 7.474006126804348
lhand 2.866486911895665 28.854297160638662
lfingers 7.125020000000001
lthumb -151.66701311442125 236.7309898379376
rclavicle -5.008197044530093e-15 -1.0203021208797218e-14
rhumerus -12.674088337311225 -5.736154975026858 -94.06518784238077
rradius 76.96359743018925
rwrist -57.05378573249283
rhand -61.202891436425276 -0.060690085691687656
rfingers 7.125020000000001
rthumb -33.296291449667606 -26.997891244850482
20
root -6.017442119416135 17.674213974051412 1.9703813865040354 -8.474990010264165 51.85529420407268 -22.685910031059464
lfemur -9.661568334501517 21.383589531177996 10.432783569304325
ltibia 35.20458987752569
lfoot -6.3616311236371565 12.430890715950474
ltoes -36.510988707075114
rfemur -30.174491945380268 12.649391090792495 28.067688576162013
rtibia 27.727396469075206
rfoot -6.173863075814221 17.033389673942587
rtoes 17.65980256426006
lowerback -0.38141239989589915 -6.387621814981864 -11.050990429258526
upperback 3.43490048235752 -8.110422109416007 -1.5767640258300215
thorax 5.1509182377427045 -4.3620617325643884 3.9615461788701207
lowerneck -7.6557144542470175 17.133789969257325 4.365745287722658
upperneck 26.621093237124796 27.063089688928486 -9.560303906793262
head 12.000891926797996 11.684289999580502 -0.4279030497590828
lclavicle -5.008197041304415e-15 -1.0203021407225173e-14
lhumerus 85.15839481684989 -66.36598941063849 27.091514226104458
lradius 26.013408461415334
lwrist 3.8589683637965937
lhand 0.13119502029734598 22.105600059863836
lfingers 7.125020000000001
lthumb -154.28401101466477 230.38799020981003
rclavicle -5.008197041304415e-15 -1.0203021407225173e-14
rhumerus -11.663888552381685 -7.77576408796312 -93.25688827854832
rradius 81.26199584079217
rwrist -51.8194876690531
rhand -62.00989100595123 3.0862877676368807
rfingers 7.125020000000001
rthumb -34.06309102447279 -23.683393351036372
21
root -6.052188009161882 17.678735147887355 1.5685158564886927 4.918405435025647 51.581251393810604 -6.495302325972361
lfemur -10.989100607928048 20.255461569590608 7.212235042268798
ltibia 34.04121118666741
lfoot -8.192110079869966 17.075154195543675
ltoes -28.81920331426289
rfemur -30.86885954616723 14.893410795346261 27.82523705476725
rtibia 27.550370970625846
rfoot -4.569158413771743 17.155844839906003
rtoes 20.121648077010306
lowerback 0.47239555414067125 -3.853965912201042 -11.161323354859245
upperback 2.4900265089133855 -4.90326806266294 -2.0827331483279887
thorax 4.166308863217526 -2.8638583200153196 4.088812274871424
lowerneck -7.7960980923409355 16.047960187111684 3.842358684807051
upperneck 26.904500989981702 25.919542591428296 -9.171096531812331
head 12.4176917144129 10.8973634803217 -0.9056700235195083
lclavicle -3.0595059822170287e-15 -8.58056765746227e-15
lhumerus 92.91795580345429 -58.82683306282027 24.75906842409546
lradius 28.15456003716178
lwrist 4.5192295806580844
lhand -1.5795878997483523 14.830468217835934
lfingers 7.125020000000001
lthumb -155.9499678928386 156.37658397284744
rclavicle -3.0595059822170263e-15 -8.580567657462265e-15
rhumerus 2.7640399372651956 -6.572477192355873 -90.64698214589495
rradius 85.59263010819336
rwrist -45.9259652306975
rhand -64.34462026011015 8.04816906551174
rfingers 7.125020000000001
rthumb -36.35891492098601 -18.81651785923338
